<svg width="136" height="101" viewBox="0 0 136 101" fill="none" xmlns="http://www.w3.org/2000/svg">
<path d="M73.4224 60.8384C73.4224 55.1414 74.151 49.4445 75.6084 43.7476C77.1982 37.9181 79.6493 32.4199 82.9614 27.2529C86.4061 21.9535 90.7782 17.1177 96.0776 12.7456C101.377 8.24105 107.803 4.46517 115.354 1.41797C116.017 1.15299 116.613 0.954264 117.143 0.821777C117.673 0.68929 118.269 0.623047 118.932 0.623047C121.979 0.623047 124.496 1.74919 126.483 4.00146C128.471 6.25374 129.464 8.70475 129.464 11.3545C129.464 13.3418 128.802 15.2629 127.477 17.1177C126.285 18.9725 124.629 20.2974 122.509 21.0923C116.547 23.3446 111.777 26.1268 108.2 29.439C104.623 32.7511 101.708 36.3283 99.4561 40.1704C100.516 39.9054 101.443 39.7729 102.238 39.7729C103.033 39.7729 103.961 39.7729 105.021 39.7729C109.128 39.7729 113.036 40.5679 116.746 42.1577C120.455 43.7476 123.701 45.9336 126.483 48.7158C129.266 51.498 131.452 54.744 133.042 58.4536C134.764 62.1632 135.625 66.1379 135.625 70.3774C135.625 74.617 134.764 78.5916 133.042 82.3013C131.452 85.8784 129.266 88.9919 126.483 91.6416C123.701 94.2913 120.455 96.4111 116.746 98.001C113.036 99.5908 109.128 100.386 105.021 100.386C99.5885 100.386 94.8853 99.3258 90.9106 97.2061C87.0685 95.0863 83.8226 92.2378 81.1729 88.6606C78.5231 84.951 76.5358 80.7114 75.2109 75.9419C74.0186 71.1724 73.4224 66.1379 73.4224 60.8384ZM0.0908203 60.8384C0.0908203 55.1414 0.819499 49.4445 2.27686 43.7476C3.8667 37.9181 6.31771 32.4199 9.62988 27.2529C13.0745 21.9535 17.4466 17.1177 22.7461 12.7456C28.0456 8.24105 34.4712 4.46517 42.0229 1.41797C42.6854 1.15299 43.2816 0.954264 43.8115 0.821777C44.3415 0.68929 44.9377 0.623047 45.6001 0.623047C48.6473 0.623047 51.1646 1.74919 53.1519 4.00146C55.2716 6.25374 56.3315 8.70475 56.3315 11.3545C56.3315 13.3418 55.6691 15.2629 54.3442 17.1177C53.0194 18.9725 51.3633 20.2974 49.376 21.0923C43.4141 23.3446 38.5783 26.1268 34.8687 29.439C31.2915 32.7511 28.3768 36.3283 26.1245 40.1704C27.1844 39.9054 28.1118 39.7729 28.9067 39.7729C29.8341 39.7729 30.8278 39.7729 31.8877 39.7729C35.9948 39.7729 39.9032 40.5679 43.6128 42.1577C47.3224 43.7476 50.5684 45.9336 53.3506 48.7158C56.1328 51.498 58.3188 54.744 59.9087 58.4536C61.4985 62.1632 62.2935 66.1379 62.2935 70.3774C62.2935 74.617 61.4985 78.5916 59.9087 82.3013C58.3188 85.8784 56.1328 88.9919 53.3506 91.6416C50.5684 94.2913 47.3224 96.4111 43.6128 98.001C39.9032 99.5908 35.9948 100.386 31.8877 100.386C26.4557 100.386 21.7524 99.3258 17.7778 97.2061C13.8032 95.0863 10.491 92.2378 7.84131 88.6606C5.19157 84.951 3.20426 80.7114 1.87939 75.9419C0.687012 71.1724 0.0908203 66.1379 0.0908203 60.8384Z" fill="#FF6333" fill-opacity="0.7"/>
</svg>
