<svg width="24" height="24" viewBox="0 0 24 24" fill="none" xmlns="http://www.w3.org/2000/svg">
<path d="M12.72 2.02979C11.2895 1.92565 9.8533 2.13075 8.50909 2.63115C7.16489 3.13154 5.94418 3.91549 4.92996 4.92972C3.91574 5.94394 3.13178 7.16464 2.63139 8.50885C2.131 9.85306 1.92589 11.2892 2.03003 12.7198C2.39003 18.0098 7.01003 21.9998 12.31 21.9998H16C16.55 21.9998 17 21.5498 17 20.9998C17 20.4498 16.55 19.9998 16 19.9998H12.33C8.60003 19.9998 5.18003 17.5798 4.25003 13.9698C2.76003 8.16979 8.16003 2.75979 13.96 4.25979C17.58 5.17979 20 8.59979 20 12.3298V13.4298C20 14.2198 19.29 14.9998 18.5 14.9998C17.71 14.9998 17 14.2198 17 13.4298V12.1798C17 9.66979 15.22 7.40979 12.74 7.05979C11.951 6.94246 11.1453 7.01532 10.3901 7.2723C9.63495 7.52929 8.95208 7.96295 8.39837 8.5372C7.84466 9.11145 7.43615 9.80967 7.20684 10.5737C6.97752 11.3378 6.93405 12.1455 7.08003 12.9298C7.25542 13.8748 7.69965 14.7491 8.35947 15.4479C9.01929 16.1468 9.86668 16.6405 10.8 16.8698C12.64 17.2998 14.39 16.7098 15.54 15.5398C16.43 16.7598 18.21 17.3998 19.84 16.7498C21.18 16.2198 22 14.8398 22 13.3998V12.3198C22 7.00979 18.01 2.38979 12.72 2.02979ZM12 14.9998C10.34 14.9998 9.00003 13.6598 9.00003 11.9998C9.00003 10.3398 10.34 8.99979 12 8.99979C13.66 8.99979 15 10.3398 15 11.9998C15 13.6598 13.66 14.9998 12 14.9998Z" fill="white"/>
</svg>
