<svg width="24" height="24" viewBox="0 0 24 24" fill="none" xmlns="http://www.w3.org/2000/svg">
<path d="M7.8 2.3999C7.32261 2.3999 6.86477 2.58954 6.52721 2.92711C6.18964 3.26468 6 3.72251 6 4.1999V19.7999C6 20.2773 6.18964 20.7351 6.52721 21.0727C6.86477 21.4103 7.32261 21.5999 7.8 21.5999H16.2C16.6774 21.5999 17.1352 21.4103 17.4728 21.0727C17.8104 20.7351 18 20.2773 18 19.7999V4.1999C18 3.72251 17.8104 3.26468 17.4728 2.92711C17.1352 2.58954 16.6774 2.3999 16.2 2.3999H7.8ZM10.8 16.7999H13.2C13.3591 16.7999 13.5117 16.8631 13.6243 16.9756C13.7368 17.0882 13.8 17.2408 13.8 17.3999C13.8 17.559 13.7368 17.7116 13.6243 17.8242C13.5117 17.9367 13.3591 17.9999 13.2 17.9999H10.8C10.6409 17.9999 10.4883 17.9367 10.3757 17.8242C10.2632 17.7116 10.2 17.559 10.2 17.3999C10.2 17.2408 10.2632 17.0882 10.3757 16.9756C10.4883 16.8631 10.6409 16.7999 10.8 16.7999Z" fill="white"/>
</svg>
